<svg width="1600" height="900" viewBox="0 0 1600 900" fill="none" xmlns="http://www.w3.org/2000/svg">
  <rect width="1600" height="900" rx="40" fill="url(#paint0_linear)"/>
  <rect x="48" y="48" width="1504" height="804" rx="28" fill="rgba(7,17,31,0.62)" stroke="rgba(255,255,255,0.18)" stroke-width="2"/>
  <rect x="92" y="94" width="1416" height="92" rx="24" fill="rgba(255,255,255,0.08)"/>
  <rect x="92" y="218" width="412" height="590" rx="28" fill="rgba(255,255,255,0.06)"/>
  <rect x="536" y="218" width="972" height="590" rx="28" fill="rgba(255,255,255,0.06)"/>
  <rect x="132" y="126" width="210" height="22" rx="11" fill="rgba(255,255,255,0.72)"/>
  <rect x="128" y="266" width="160" height="18" rx="9" fill="rgba(255,255,255,0.18)"/>
  <rect x="128" y="314" width="242" height="14" rx="7" fill="rgba(255,255,255,0.1)"/>
  <rect x="128" y="382" width="160" height="18" rx="9" fill="rgba(255,255,255,0.18)"/>
  <rect x="128" y="430" width="214" height="14" rx="7" fill="rgba(255,255,255,0.1)"/>
  <rect x="128" y="498" width="160" height="18" rx="9" fill="rgba(255,255,255,0.18)"/>
  <rect x="128" y="546" width="226" height="14" rx="7" fill="rgba(255,255,255,0.1)"/>
  <rect x="576" y="258" width="892" height="310" rx="24" fill="url(#paint1_linear)"/>
  <rect x="576" y="604" width="260" height="148" rx="24" fill="rgba(255,255,255,0.08)"/>
  <rect x="866" y="604" width="260" height="148" rx="24" fill="rgba(255,255,255,0.08)"/>
  <rect x="1156" y="604" width="260" height="148" rx="24" fill="rgba(255,255,255,0.08)"/>
  <path d="M878 346L980 278L1082 346V482L980 550L878 482V346Z" fill="rgba(255,255,255,0.86)"/>
  <path d="M950 343L1010 383L1010 446L950 486L890 446V383L950 343Z" fill="rgba(12,31,52,0.95)"/>
  <rect x="640" y="650" width="118" height="16" rx="8" fill="rgba(255,255,255,0.18)"/>
  <rect x="930" y="650" width="118" height="16" rx="8" fill="rgba(255,255,255,0.18)"/>
  <rect x="1220" y="650" width="118" height="16" rx="8" fill="rgba(255,255,255,0.18)"/>
  <rect x="640" y="686" width="136" height="12" rx="6" fill="rgba(255,255,255,0.1)"/>
  <rect x="930" y="686" width="150" height="12" rx="6" fill="rgba(255,255,255,0.1)"/>
  <rect x="1220" y="686" width="128" height="12" rx="6" fill="rgba(255,255,255,0.1)"/>
  <defs>
    <linearGradient id="paint0_linear" x1="74" y1="44" x2="1492" y2="856" gradientUnits="userSpaceOnUse">
      <stop stop-color="#10243F"/>
      <stop offset="0.52" stop-color="#0A1527"/>
      <stop offset="1" stop-color="#050B15"/>
    </linearGradient>
    <linearGradient id="paint1_linear" x1="624" y1="258" x2="1406" y2="568" gradientUnits="userSpaceOnUse">
      <stop stop-color="#72D2FF"/>
      <stop offset="0.5" stop-color="#3E7FD1"/>
      <stop offset="1" stop-color="#1A2D4C"/>
    </linearGradient>
  </defs>
</svg>
